<?xml version="1.0" encoding="UTF-8"?>
<!DOCTYPE svg PUBLIC "-//W3C//DTD SVG 1.1//EN" "http://www.w3.org/Graphics/SVG/1.1/DTD/svg11.dtd">
<!-- Creator: CorelDRAW -->
<svg xmlns="http://www.w3.org/2000/svg" xml:space="preserve" width="2439px" height="637px" shape-rendering="geometricPrecision" text-rendering="geometricPrecision" image-rendering="optimizeQuality" fill-rule="evenodd" clip-rule="evenodd"
viewBox="0 0 2458.5 641.733"
 xmlns:xlink="http://www.w3.org/1999/xlink">
 <g id="Ebene_x0020_1">
  <metadata id="CorelCorpID_0Corel-Layer"/>
  <path fill="black" fill-rule="nonzero" d="M145.634 240.491l0 158.578c0,2.89632 0.240468,7.72472 0.723783,14.4828 0,6.27477 0,11.3436 0,15.2054l0 23.8956c0,15.9304 -3.49987,26.9121 -10.4996,32.9464 -6.99975,6.03431 -18.9469,10.7413 -35.8428,14.1209l-62.9965 12.3091 -4.34508 -3.62011 2.17254 -99.9262c0.482125,-27.999 0.723783,-50.6875 0.723783,-68.0654l0 -133.234c0,-20.2755 -3.13798,-42.4806 -9.41276,-66.6178l0 -6.51643 83.2708 -94.8573c17.3791,-19.7921 34.0333,-30.6537 49.9637,-32.5845 8.20566,0 15.2054,0.240468 20.9981,0.723783l131.063 10.8615 2.89632 7.96519 -41.9985 64.4453c-11.102,16.8958 -24.8598,25.3431 -41.2735,25.3431 -6.75809,0 -17.8613,-0.965441 -33.3083,-2.89632l-52.135 -6.51643 0 93.4085 78.2031 -44.1698c29.4466,0 53.9445,6.87832 73.4962,20.6362 19.5505,13.7578 35.6011,34.3952 48.1518,61.9109 11.5865,24.1372 18.5862,49.722 20.9992,76.7544 0.965441,9.6556 1.44876,19.0684 1.44876,28.2406 0,56.4801 -13.9995,107.166 -41.9985,152.061 -29.9299,47.3078 -70.4796,79.1686 -121.649,95.5811 -21.2397,6.75809 -45.1353,10.1377 -71.6855,10.1377l-3.62011 -5.79265 0 -26.7919c0,-19.31 11.3436,-28.9644 34.0321,-28.9644l20.2755 0c24.6193,0 43.9282,-13.5162 57.9277,-40.5497 11.1032,-21.2397 17.1375,-45.8591 18.1029,-73.858 2.41301,-70.9617 -13.0341,-123.58 -46.3424,-157.854 -17.3791,-17.8613 -39.8259,-26.7919 -67.3416,-26.7919z"/>
  <path id="1" fill="black" fill-rule="nonzero" d="M419.343 219.492l138.303 -70.9617c4.34508,-0.482125 9.17229,-0.723783 14.4828,-0.723783 42.4806,0 75.7889,20.2743 99.9262,60.824 19.791,33.7916 29.687,73.3759 29.687,118.753 0,84.9612 -33.7904,145.303 -101.374,181.026 -6.27596,1.44757 -13.2745,2.65467 -20.9992,3.62011 -3.86177,0.483316 -9.65441,0.723783 -17.3779,0.723783l-10.8615 0c-43.9294,0 -77.7198,-11.5853 -101.374,-34.7559 -13.5174,-13.0341 -22.2063,-29.9299 -26.0681,-50.6875 -2.89632,-12.5507 -4.34508,-31.8608 -4.34508,-57.9289l0 -149.889zm207.094 194.783c-3.86177,-55.9968 -14.603,-100.046 -32.2226,-132.149 -17.6196,-32.1012 -40.9116,-52.4969 -69.876,-61.1859l0 128.889c0,27.999 5.55099,46.584 16.6542,55.7563 9.65441,7.72353 28.9644,11.5853 57.9289,11.5853 3.86177,0 13.0329,-0.965441 27.5157,-2.89632z"/>
  <path id="12" fill="black" fill-rule="nonzero" d="M852.356 352.003l0 9.41395c0,23.1706 6.27596,38.3772 18.8267,45.6174 9.17229,5.79265 26.3086,8.69016 51.4112,8.69016 25.5848,0 50.4458,-2.89751 74.5818,-8.69016l5.06886 7.96519 -69.513 89.0646c-1.44876,0.483316 -4.58674,1.44876 -9.41395,2.89632 -2.89632,0.483316 -6.03431,1.2071 -9.41276,2.17254 -20.2755,1.44876 -32.5845,2.17254 -36.9296,2.17254 -44.4115,0 -77.7198,-10.8615 -99.9262,-32.5845 -13.5162,-13.0341 -22.2052,-29.9299 -26.0669,-50.6875 -2.4142,-11.5853 -3.6213,-30.8953 -3.6213,-57.9277l0 -149.89 143.372 -70.9617 17.3791 0c30.412,0 54.548,16.4137 72.4093,49.2387 13.9995,26.0681 21.4826,55.998 22.448,89.7896l-4.34508 5.79265 -146.269 57.9277zm0 -41.2735l49.9625 -19.5505c-2.89632,-38.6188 -19.5505,-64.9286 -49.9625,-78.9269l0 98.4774z"/>
  <path id="123" fill="black" fill-rule="nonzero" d="M1160.1 404.138l78.2031 22.448c2.89632,-19.31 4.10342,-36.9296 3.62011,-52.86 -1.93088,-42.4806 -11.5853,-79.4102 -28.9632,-110.788 -13.0341,-23.1706 -31.8608,-38.1355 -56.4801,-44.8936 0.482125,4.82721 1.2071,15.6887 2.17254,32.5845l1.44757 32.5845 0 120.924zm0.723783 102.099l0 38.3772c0,33.3083 -2.89632,53.8254 -8.68897,61.549 -7.24141,9.65441 -21.4814,17.1363 -42.7223,22.4468l-50.6863 13.0341 -5.79265 -4.34508c0.965441,-21.723 1.68922,-46.1007 2.17135,-73.1343 0.483316,-34.2738 0.724974,-62.5132 0.724974,-84.7196l-39.8259 -13.0341 0 -5.79265 39.8259 -81.8232 0 -91.961c0,-41.5152 -6.99975,-70.4796 -20.9992,-86.8921l0 -5.79265 66.6166 -44.8948c25.1027,0 41.7568,11.1032 49.9637,33.3095l62.2728 -33.3095 11.5853 0c33.7916,0 60.5835,16.8958 80.3757,50.6875 15.9304,27.5157 24.861,59.8586 26.7919,97.0298 3.86177,71.9272 -17.8613,132.993 -65.1691,183.197 -22.2063,23.6539 -46.8257,34.9987 -73.8592,34.0333 -7.24021,0 -18.1017,-2.65467 -32.5845,-7.96519z"/>
  <path id="1234" fill="black" fill-rule="nonzero" d="M1566.32 178.219l-41.9973 66.6178c-3.37964,4.34389 -6.75809,7.60211 -10.1377,9.77465 -3.37964,2.17254 -7.24141,3.74153 -11.5853,4.70697l0 291.812c0,25.1027 -3.01775,42.2401 -9.05205,51.4112 -6.03312,9.17229 -20.6362,17.1375 -43.8079,23.8956l-49.9625 14.4828 -5.79265 -6.51762 2.89632 -75.3068c0.482125,-19.7921 0.723783,-45.1353 0.723783,-76.0306l0 -223.747 -43.446 0 0 -9.41395 40.5497 -79.6507c-6.75809,-23.1718 -13.9995,-42.7223 -21.723,-58.6526l-5.79265 -12.3091 0 -7.24141 78.2031 -70.9617c12.0674,-11.1032 24.136,-17.6196 36.2046,-19.5505 8.20685,-1.44876 19.5505,1.44757 34.0333,8.68897l68.0654 33.3083 0 7.24141 -38.3784 39.8259c-6.75809,7.24021 -10.8615,11.3436 -12.3091,12.3091 -4.34508,3.86177 -9.17229,6.27596 -14.4816,7.24141 -4.8284,0.482125 -10.1377,0.241658 -15.9304,-0.723783 -0.965441,0 -8.20685,-3.6213 -21.723,-10.8615l-38.3772 -20.2755 -3.6213 2.89632 8.68897 9.41395c20.2755,21.723 37.8951,48.2733 52.86,79.6507l62.2728 0 3.62011 7.96519z"/>
  <path id="12345" fill="black" fill-rule="nonzero" d="M1708.24 490.306l-1.44876 4.34508c-31.8608,3.86177 -69.7546,8.68897 -113.684,14.4816l-2.89632 -4.34508 2.17254 -67.3404c0.483316,-17.8613 0.723783,-32.5845 0.723783,-44.171l0 -106.443c0,-43.446 -6.75809,-71.9272 -20.2743,-85.4433l0 -7.24141 63.7203 -44.1698c28.4811,-0.965441 47.5495,13.9983 57.2039,44.8936l86.8921 -45.6186 14.4828 0c48.2733,0 71.4438,40.0676 69.513,120.202l-0.723783 31.8596 0 86.8921c0,0.483316 0.241658,12.3103 0.723783,35.4809 0.483316,13.9995 2.17254,31.137 5.06886,51.4112 0,1.44876 1.44876,6.51762 4.34508,15.2066l-1.44876 4.34508c-31.8596,3.86177 -69.7546,8.68897 -113.684,14.4816l-2.89632 -4.34508 2.17254 -62.9965c0.483316,-18.3434 0.723783,-34.5154 0.723783,-48.5149l0 -87.6159c0,-33.7916 -4.82721,-55.5147 -14.4816,-65.1691 -6.75809,-6.75809 -15.9304,-10.1377 -27.5157,-10.1377 -7.24141,0 -13.7578,0.723783 -19.5505,2.17254l0 6.51643 0.723783 18.1029 0 150.614c0,13.5162 1.44876,33.0667 4.34508,58.6515 0.482125,4.82721 2.41301,12.7924 5.79265,23.8956z"/>
  <path id="123456" fill="black" fill-rule="nonzero" d="M2027.57 352.003l0 9.41395c0,23.1706 6.27596,38.3772 18.8267,45.6174 9.17229,5.79265 26.3086,8.69016 51.4112,8.69016 25.5848,0 50.4458,-2.89751 74.5818,-8.69016l5.06886 7.96519 -69.513 89.0646c-1.44876,0.483316 -4.58674,1.44876 -9.41395,2.89632 -2.89632,0.483316 -6.03431,1.2071 -9.41276,2.17254 -20.2755,1.44876 -32.5845,2.17254 -36.9296,2.17254 -44.4115,0 -77.7198,-10.8615 -99.9262,-32.5845 -13.5162,-13.0341 -22.2052,-29.9299 -26.0669,-50.6875 -2.4142,-11.5853 -3.6213,-30.8953 -3.6213,-57.9277l0 -149.89 143.372 -70.9617 17.3791 0c30.412,0 54.548,16.4137 72.4093,49.2387 13.9995,26.0681 21.4826,55.998 22.448,89.7896l-4.34508 5.79265 -146.269 57.9277zm0 -41.2735l49.9625 -19.5505c-2.89632,-38.6188 -19.5505,-64.9286 -49.9625,-78.9269l0 98.4774z"/>
  <path id="1234567" fill="black" fill-rule="nonzero" d="M2273.04 149.254c28.4811,0 46.8257,17.1375 55.0313,51.4112l31.137 -32.5845c8.20685,-8.68897 16.4125,-13.5162 24.6193,-14.4816 9.65441,-1.44876 20.5159,1.68922 32.5845,9.41276l41.9973 26.0681 0 6.51643 -35.4809 46.3424c-8.20566,10.621 -17.1363,15.9304 -26.7919,15.9304 -3.86177,0 -6.63667,-0.240468 -8.32708,-0.723783 -1.68922,-0.482125 -5.91288,-2.17254 -12.671,-5.06886l-15.9304 -7.24021c-2.89632,-1.93088 -6.99975,-2.89751 -12.3103,-2.89751 -3.37845,0 -7.72353,4.10342 -13.0329,12.3103 -0.483316,7.72353 -0.724974,16.6542 -0.724974,26.7919l0 87.6159c0,26.5502 1.93088,56.4801 5.79265,89.7884 0.965441,10.1377 3.37964,20.5171 7.24141,31.137l-1.44757 5.06886 -116.58 14.4816 -2.89751 -4.34508 1.44876 -42.7211c0.965441,-28.4823 1.44876,-51.4112 1.44876,-68.7904l0 -106.443c0,-41.0319 -6.75928,-69.9963 -20.2755,-86.8921l0 -5.79265 65.1691 -44.8948z"/>
 </g>
</svg>
