<?xml version="1.0" encoding="utf-8"?>
<svg version="1.0" xmlns="http://www.w3.org/2000/svg"
 width="4260.000000pt" height="1480.000000pt" viewBox="0 0 4260.000000 1480.000000"
 preserveAspectRatio="xMidYMid meet" >
<g transform="translate(0.000000,1480.000000) scale(0.100000,-0.100000)"
fill="#FF0000" stroke="none">
<path d="M5437 13449 c-392 -40 -748 -255 -964 -584 -89 -134 -154 -291 -190
-455 -25 -120 -25 -410 0 -530 123 -576 584 -984 1174 -1041 330 -32 647 57
915 258 371 280 563 737 507 1208 -68 572 -502 1033 -1062 1129 -113 20 -275
26 -380 15z"/>
<path d="M2745 10035 c-494 -81 -900 -435 -1045 -912 -56 -184 -53 -101 -57
-1750 l-4 -1523 3011 0 3010 0 0 -385 0 -385 -3010 0 -3010 0 0 -252 c1 -397
19 -557 86 -742 125 -348 424 -645 774 -772 100 -36 224 -62 345 -74 150 -14
5316 -14 5475 0 529 47 962 388 1130 889 67 200 63 98 67 1784 l4 1527 -3016
0 -3015 0 0 385 0 385 3016 0 3016 0 -5 348 c-4 305 -8 359 -27 446 -23 109
-65 238 -100 306 -204 406 -562 665 -1007 730 -115 16 -5534 12 -5638 -5z"/>
<path d="M26280 5630 l0 -2400 325 0 325 0 0 803 1 802 142 -145 c352 -360
766 -863 1116 -1357 l73 -103 399 0 c266 0 399 3 399 10 0 6 -41 72 -92 148
-294 441 -592 831 -916 1202 -41 47 -173 183 -294 302 l-218 218 682 701 c376
386 684 708 686 715 3 12 -59 14 -380 14 l-383 0 -605 -627 -605 -628 -5 1370
-5 1370 -322 3 -323 2 0 -2400z"/>
<path d="M14070 7829 c-480 -53 -841 -235 -1064 -533 -199 -267 -268 -678
-175 -1041 25 -96 102 -260 157 -333 119 -158 268 -278 492 -394 125 -66 221
-105 565 -233 412 -154 505 -195 651 -290 153 -99 250 -220 296 -368 18 -58
22 -96 22 -192 0 -178 -42 -308 -136 -433 -222 -290 -820 -370 -1509 -201
-131 32 -396 117 -462 149 -46 23 -67 25 -67 9 0 -7 -38 -122 -85 -257 -47
-134 -85 -251 -85 -259 0 -38 366 -162 645 -218 252 -51 393 -66 687 -72 333
-7 501 8 727 62 129 31 318 104 393 151 20 13 41 24 45 24 15 0 192 142 239
192 219 231 317 504 317 878 0 237 -30 390 -108 556 -161 343 -424 536 -1050
769 -483 179 -580 218 -696 276 -192 96 -301 189 -363 311 -46 91 -60 161 -53
283 6 120 32 208 86 292 122 189 334 295 653 325 305 28 797 -40 1163 -162 50
-16 96 -30 103 -30 9 0 12 65 12 293 l0 292 -87 24 c-263 71 -482 111 -718
131 -140 12 -487 11 -595 -1z"/>
<path d="M40065 6595 c-207 -32 -393 -104 -560 -214 -77 -51 -260 -228 -315
-305 -44 -62 -72 -109 -125 -216 -230 -458 -270 -1177 -94 -1703 171 -510 527
-836 1044 -956 147 -34 233 -41 488 -41 245 0 455 15 627 45 112 19 302 64
313 75 4 4 -20 116 -54 249 -63 242 -63 243 -88 238 -14 -2 -84 -16 -154 -31
-175 -35 -343 -56 -527 -63 -610 -23 -952 251 -1054 846 -9 52 -16 109 -16
128 l0 33 1044 0 1045 0 6 21 c12 36 9 569 -3 677 -83 731 -444 1137 -1085
1222 -105 14 -393 11 -492 -5z m440 -481 c193 -49 339 -188 410 -391 41 -118
57 -220 62 -400 l6 -173 -726 0 -726 0 5 53 c57 558 275 868 655 926 80 12
235 5 314 -15z"/>
<path d="M17950 6589 c-312 -40 -590 -203 -741 -436 l-44 -67 -9 227 -9 227
-308 0 -309 0 0 -2310 0 -2310 325 0 325 0 0 749 0 749 67 -45 c197 -131 400
-190 698 -200 277 -9 518 38 724 141 346 175 579 503 686 966 52 228 60 313
60 650 0 375 -17 518 -92 770 -118 400 -374 698 -705 820 -187 68 -456 96
-668 69z m258 -573 c264 -86 430 -324 500 -716 24 -138 24 -613 -1 -755 -35
-201 -86 -365 -143 -464 -108 -185 -249 -298 -439 -353 -70 -20 -102 -23 -250
-23 -195 1 -246 11 -390 79 -94 44 -164 90 -252 164 l-53 44 0 512 c0 604 9
705 82 936 71 224 189 398 341 502 67 46 107 64 197 90 99 28 295 20 408 -16z"/>
<path d="M21090 6589 c-211 -18 -407 -52 -615 -107 l-110 -29 -3 -261 c-2
-213 0 -262 11 -262 7 0 53 14 103 30 326 112 655 160 949 139 358 -25 541
-147 600 -401 17 -74 32 -368 19 -368 -5 0 -142 -5 -304 -10 -292 -9 -465 -24
-630 -55 -512 -96 -846 -346 -960 -720 -42 -137 -53 -230 -47 -420 6 -190 20
-273 71 -408 55 -146 174 -297 300 -381 246 -163 653 -211 1019 -120 194 49
391 141 513 240 l51 42 7 -91 c3 -49 6 -110 6 -134 l0 -43 305 0 305 0 0 1208
c0 768 -4 1237 -10 1290 -26 208 -98 393 -203 521 -139 172 -352 275 -680 328
-112 18 -546 26 -697 12z m960 -2173 l0 -434 -44 -42 c-208 -199 -581 -309
-863 -255 -212 40 -349 174 -388 379 -19 100 -19 187 1 284 62 304 303 453
799 495 22 2 142 4 268 5 l227 2 0 -434z"/>
<path d="M30365 6594 c-22 -2 -92 -9 -155 -15 -137 -13 -350 -50 -475 -84 -49
-13 -109 -29 -132 -35 l-43 -11 0 -259 c0 -244 1 -260 18 -260 10 0 65 16 123
35 316 108 644 155 931 134 364 -26 549 -152 602 -412 10 -48 16 -127 16 -215
l0 -139 -82 -6 c-46 -4 -144 -7 -219 -7 -255 0 -543 -31 -744 -80 -339 -83
-585 -237 -733 -459 -70 -105 -114 -213 -142 -351 -19 -93 -21 -127 -17 -300
4 -168 8 -209 31 -294 100 -384 369 -603 806 -657 127 -15 357 -5 485 21 224
47 453 148 586 260 l47 39 7 -134 7 -135 304 0 305 0 -4 1253 c-3 1094 -6
1262 -19 1327 -35 167 -73 265 -143 370 -146 219 -364 338 -728 397 -88 14
-539 26 -632 17z m885 -2182 l0 -438 -37 -36 c-208 -196 -580 -306 -860 -253
-272 52 -415 251 -400 555 10 175 53 281 161 385 104 101 268 168 493 199 147
21 166 22 421 24 l222 2 0 -438z"/>
<path d="M33660 6594 c-285 -33 -484 -97 -650 -207 -255 -171 -380 -418 -380
-749 0 -265 58 -423 210 -578 153 -156 331 -245 800 -398 421 -138 530 -186
630 -279 65 -59 97 -118 112 -204 20 -118 -34 -268 -125 -346 -51 -42 -173
-94 -276 -116 -81 -18 -131 -21 -316 -21 -314 0 -500 31 -813 136 -83 28 -154
49 -155 47 -2 -2 -23 -58 -46 -124 -24 -66 -60 -169 -82 -228 -21 -60 -39
-115 -39 -122 0 -33 354 -145 580 -184 233 -40 303 -46 580 -46 329 0 456 17
668 86 357 116 568 323 654 639 20 76 23 106 22 280 0 182 -2 201 -27 283 -47
152 -110 253 -221 355 -68 62 -117 95 -227 155 -117 64 -195 93 -599 227 -493
163 -596 217 -673 355 -19 34 -22 55 -22 140 0 94 2 103 33 162 40 72 57 90
135 136 215 130 773 121 1260 -19 65 -19 125 -34 133 -34 12 0 14 43 14 264
l0 264 -52 16 c-90 27 -337 75 -473 91 -122 15 -577 28 -655 19z"/>
<path d="M36910 6594 c-360 -42 -598 -137 -776 -311 -122 -119 -182 -224 -231
-403 -14 -51 -18 -104 -17 -250 0 -206 13 -273 75 -394 132 -254 337 -381 929
-574 421 -138 530 -186 630 -279 65 -59 97 -118 112 -204 20 -118 -34 -268
-125 -346 -51 -42 -173 -94 -276 -116 -81 -18 -131 -21 -316 -21 -314 0 -500
31 -813 136 -83 28 -154 49 -155 47 -2 -2 -22 -56 -44 -119 -23 -63 -60 -167
-82 -230 -23 -63 -41 -120 -41 -126 0 -32 359 -145 580 -183 233 -40 303 -46
580 -46 329 0 454 16 670 86 377 122 600 358 665 704 26 137 17 379 -19 498
-45 150 -108 252 -220 355 -68 62 -117 95 -227 155 -117 64 -195 93 -599 227
-493 163 -596 217 -673 355 -19 34 -22 55 -22 140 0 94 2 103 33 162 40 72 57
90 135 136 215 130 773 121 1260 -19 65 -19 125 -34 133 -34 12 0 14 43 14
264 l0 264 -52 16 c-90 27 -337 75 -473 91 -122 15 -577 28 -655 19z"/>
<path d="M25201 6535 c-249 -55 -445 -187 -612 -415 -31 -41 -69 -99 -85 -129
l-29 -55 -6 250 c-3 137 -7 273 -8 302 l-1 52 -310 0 -310 0 0 -1655 0 -1655
325 0 324 0 3 973 3 972 28 90 c105 335 330 560 648 647 74 20 106 23 282 23
l197 0 0 301 0 301 -46 7 c-82 11 -336 5 -403 -9z"/>
</g>
</svg>
