<svg id="undraw_Web_search_re_efla" xmlns="http://www.w3.org/2000/svg" width="352.036" height="277.148" viewBox="0 0 352.036 277.148">
  <rect id="Rechteck_8" data-name="Rechteck 8" width="319.454" height="204.593" transform="translate(0.136 0.181)" fill="#e6e6e6"/>
  <path id="Pfad_150" data-name="Pfad 150" d="M0,0H301.184V166.828H0Z" transform="translate(9.271 25.842)" fill="#fff"/>
  <rect id="Rechteck_10" data-name="Rechteck 10" width="319.454" height="13.572" fill="#ff5100"/>
  <circle id="Ellipse_12" data-name="Ellipse 12" cx="2.515" cy="2.515" r="2.515" transform="translate(7.57 4.423)" fill="#fff"/>
  <circle id="Ellipse_13" data-name="Ellipse 13" cx="2.515" cy="2.515" r="2.515" transform="translate(17.118 4.423)" fill="#fff"/>
  <circle id="Ellipse_14" data-name="Ellipse 14" cx="2.515" cy="2.515" r="2.515" transform="translate(26.665 4.423)" fill="#fff"/>
  <rect id="Rechteck_11" data-name="Rechteck 11" width="77.39" height="132.208" transform="translate(36.638 43.152)" fill="#e6e6e6"/>
  <rect id="Rechteck_12" data-name="Rechteck 12" width="64.492" height="36.392" transform="translate(127.387 43.152)" fill="#ff5100"/>
  <rect id="Rechteck_13" data-name="Rechteck 13" width="64.492" height="39.156" transform="translate(127.387 89.678)" fill="#e6e6e6"/>
  <rect id="Rechteck_14" data-name="Rechteck 14" width="64.492" height="36.392" transform="translate(127.387 138.968)" fill="#e6e6e6"/>
  <rect id="Rechteck_15" data-name="Rechteck 15" width="77.39" height="57.616" transform="translate(205.699 43.152)" fill="#e6e6e6"/>
  <rect id="Rechteck_16" data-name="Rechteck 16" width="77.39" height="57.616" transform="translate(205.699 117.745)" fill="#e6e6e6"/>
  <path id="Pfad_60" data-name="Pfad 60" d="M755.712,352.668v-12.4a16.621,16.621,0,0,1,33.242,0v12.4a2.235,2.235,0,0,1-2.233,2.233H757.945A2.235,2.235,0,0,1,755.712,352.668Z" transform="translate(-502.437 -247.761)" fill="#292929"/>
  <path id="Pfad_61" data-name="Pfad 61" d="M578.372,513.824l-5.862,1.622-9.048-21.84,8.652-2.394Z" transform="translate(-283.899 -247.496)" fill="#ffb8b8"/>
  <path id="Pfad_62" data-name="Pfad 62" d="M7.386,0H19.117V7.386H0A7.386,7.386,0,0,1,7.386,0Z" transform="translate(276.842 269.402) rotate(-15.47)" fill="#292929"/>
  <path id="Pfad_63" data-name="Pfad 63" d="M461.212,522.049h-6.083l-2.894-23.462h8.978Z" transform="translate(-227.857 -251.212)" fill="#ffb8b8"/>
  <path id="Pfad_64" data-name="Pfad 64" d="M441.81,542.372h11.731v7.386H434.424A7.386,7.386,0,0,1,441.81,542.372Z" transform="translate(-218.883 -273.273)" fill="#292929"/>
  <path id="Pfad_65" data-name="Pfad 65" d="M699.758,444.148a4.989,4.989,0,0,0,7.637.455l16.17,7.273-1.471-9.1-15.13-5.512a5.016,5.016,0,0,0-7.206,6.879Z" transform="translate(-473.738 -304.433)" fill="#ffb8b8"/>
  <path id="Pfad_66" data-name="Pfad 66" d="M742.726,496.889c-5.08,0-10.339-.757-14.76-3.007a19.06,19.06,0,0,1-9.779-11.692c-2.3-7.293.6-14.458,3.409-21.387,1.74-4.294,3.384-8.349,3.811-12.346l.149-1.419c.664-6.374,1.238-11.88,4.414-13.944,1.646-1.07,3.86-1.131,6.768-.187l27.311,8.872-1,51.843-.166.055A72.525,72.525,0,0,1,742.726,496.889Z" transform="translate(-483.11 -302.478)" fill="#292929"/>
  <path id="Pfad_67" data-name="Pfad 67" d="M747.137,398.193s13.4-3.969,23.815-2.481c0,0-5.954,32.746-3.969,43.661s-34.483,4.217-27.04-6.2l2.481-12.4a8.276,8.276,0,0,1-.5-10.915Z" transform="translate(-493.986 -283.905)" fill="#ff5100"/>
  <path id="Pfad_68" data-name="Pfad 68" d="M725.416,478.362l-16.51-3.1,5.764-44.359c.388-1.238,9.317-29.344,13.372-30.865a69.217,69.217,0,0,1,9.013-2.5l.587-.118-3.311,4.966-13.18,31.582Z" transform="translate(-478.853 -284.934)" fill="#292929"/>
  <path id="Pfad_69" data-name="Pfad 69" d="M703.18,584.484l-21.332-3.555,11.971-48.883,17.814-66.85.176,1.187c.014.088,1.678,8.821,26.371,4.947l.217-.034.06.211L768.3,576.958l-24.307,4.051-22.169-76.937Z" transform="translate(-465.221 -319.082)" fill="#292929"/>
  <path id="Pfad_70" data-name="Pfad 70" d="M784.436,485.063l.013-.375c.015-.417,1.482-41.862.992-58.53a91.943,91.943,0,0,1,4.977-31.353l.044-.116.12-.034c7.005-2,13.083,3.972,13.144,4.032l.085.085-2,16.461,8.542,59.857Z" transform="translate(-516.909 -283.334)" fill="#292929"/>
  <circle id="Ellipse_15" data-name="Ellipse 15" cx="12.186" cy="12.186" r="12.186" transform="translate(254.295 82.478)" fill="#ffb8b8"/>
  <path id="Pfad_71" data-name="Pfad 71" d="M747.787,345.791a13.163,13.163,0,0,1,13.148-13.148h2.481a13.163,13.163,0,0,1,13.148,13.148v.248h-5.243l-1.788-5.007-.358,5.007h-2.709l-.9-2.526-.181,2.526h-17.6Z" transform="translate(-498.444 -252.296)" fill="#292929"/>
  <path id="Pfad_72" data-name="Pfad 72" d="M779.474,366.42a2.2,2.2,0,0,1-.175-2.335c2.629-5,6.31-14.24,1.424-19.938l-.351-.409h14.184v21.3l-12.885,2.273a2.278,2.278,0,0,1-.4.035,2.223,2.223,0,0,1-1.8-.921Z" transform="translate(-514.192 -257.886)" fill="#292929"/>
  <path id="Pfad_73" data-name="Pfad 73" d="M552.912,196.211a66.991,66.991,0,1,0,3.8,98.934l82.172,69.336a6.173,6.173,0,1,0,7.971-9.428l-.009-.008L564.672,285.71a66.994,66.994,0,0,0-11.76-89.5Zm-5.3,82.822a50.19,50.19,0,1,1-5.992-70.726h0A50.19,50.19,0,0,1,547.615,279.033Z" transform="translate(-344.736 -175.598)" fill="#004c45"/>
  <path id="Pfad_74" data-name="Pfad 74" d="M488.1,322.736a50.192,50.192,0,0,1-8.517-67.471q-1.439,1.45-2.783,3.036a50.19,50.19,0,1,0,76.717,64.734q1.34-1.589,2.525-3.254A50.192,50.192,0,0,1,488.1,322.736Z" transform="translate(-355.945 -213.309)" opacity="0.3"/>
  <path id="Pfad_75" data-name="Pfad 75" d="M786.3,479.674a4.989,4.989,0,0,0,6.164-4.531l17.084-4.742-6.945-6.055-15.159,5.431a5.016,5.016,0,0,0-1.145,9.9Z" transform="translate(-515.905 -318.654)" fill="#ffb8b8"/>
  <path id="Pfad_76" data-name="Pfad 76" d="M803.47,446.224l-1.04-9.876,14.271-7.874-9.3-11.263,1.518-12.652,3.781-1.62.118.151c1.783,2.292,17.418,22.466,17.418,24.96,0,2.561-2.991,10.083-7.083,12.13-3.947,1.974-18.77,5.81-19.4,5.972Z" transform="translate(-525.975 -287.715)" fill="#292929"/>
  <path id="Pfad_77" data-name="Pfad 77" d="M761.3,728.289H572.262a.5.5,0,0,1,0-.992H761.3a.5.5,0,0,1,0,.992Z" transform="translate(-409.756 -451.141)" fill="#292929"/>
</svg>
