<svg xmlns="http://www.w3.org/2000/svg" width="341.158" height="294.06" viewBox="0 0 341.158 294.06">
  <g id="undraw_click_here_2li1" transform="translate(202.815 -64.62)">
    <rect id="Rechteck_17" data-name="Rechteck 17" width="83.35" height="67.666" transform="translate(-58.83 108.536)" fill="#ff5100"/>
    <rect id="Rechteck_19" data-name="Rechteck 19" width="42.621" height="9.259" transform="translate(46.681 125.991)" fill="#ff5100"/>
    <rect id="Rechteck_20" data-name="Rechteck 20" width="60.38" height="9.259" transform="translate(46.681 150.875)" fill="#ff5100" opacity="0.3"/>
    <path id="Pfad_85" data-name="Pfad 85" d="M498.42,430.655H318.5v-9.168H498.42ZM319.2,429.636H497.724v-7.131H319.2Z" transform="translate(-378.451 -226.153)" fill="#292929"/>
    <path id="Pfad_86" data-name="Pfad 86" d="M498.42,479.553H318.5v-8.066H498.42Zm-179.224-.9H497.724v-6.274H319.2Z" transform="translate(-378.451 -253.747)" fill="#292929"/>
    <path id="Pfad_87" data-name="Pfad 87" d="M498.42,529.553H318.5v-8.066H498.42Zm-179.224-.9H497.724v-6.274H319.2Z" transform="translate(-378.451 -281.341)" fill="#292929"/>
    <path id="Pfad_88" data-name="Pfad 88" d="M498.42,579.553H318.5v-8.066H498.42Zm-179.224-.9H497.724v-6.274H319.2Z" transform="translate(-378.451 -308.935)" fill="#292929"/>
    <path id="Pfad_89" data-name="Pfad 89" d="M498.42,629.553H318.5v-8.066H498.42Zm-179.224-.9H497.724v-6.274H319.2Z" transform="translate(-378.451 -336.529)" fill="#292929"/>
    <path id="Pfad_90" data-name="Pfad 90" d="M498.42,679.553H318.5v-8.066H498.42Zm-179.224-.9H497.724v-6.274H319.2Z" transform="translate(-378.451 -364.123)" fill="#292929"/>
    <path id="Pfad_91" data-name="Pfad 91" d="M505.667,427.547H289V136.487H505.667Zm-215.931-.9h215.2V137.383h-215.2Z" transform="translate(-367.323 -71.867)" fill="#292929"/>
    <path id="Pfad_114" data-name="Pfad 114" d="M715.275,564.273c0-8.448-.209-7.705,0-12.71-.36-12.238,13.7-19.02,16.91-6.461.176.39,2.563,5.935,2.874,6.461h0c.19-3.657.391-7.372,1.605-10.826,1.845-7.166,11.868-12.358,16.656-5.1,2.531,4.495-.825,10.8,2.085,15.059,1.836-10.719,17.4-8.2,15.761,2.551-1.23,5.167-6.986,8.695-11.344,11.032Z" transform="translate(-774.013 -388.071)" fill="#f0956a" opacity="0.52"/>
    <text id="jetzt_buchen" data-name="jetzt buchen" transform="translate(-51.38 135.43)" fill="#fffbf5" font-size="13" font-family="DMSerifText-Regular, DM Serif Text"><tspan x="0" y="13">jetzt buchen</tspan></text>
    <g id="undraw_Booking_re_gw4j" transform="translate(-202.82 145.755)">
      <path id="Pfad_138" data-name="Pfad 138" d="M688.171,495.816a5.488,5.488,0,0,1-1.464-4.523,5.589,5.589,0,0,1,2.64-3.991l9.7-50.152,11.792,4.236L697.6,489.351a5.524,5.524,0,0,1-1.748,7.287,5.95,5.95,0,0,1-7.677-.823Z" transform="translate(-624.122 -381.243)" fill="#764c3f"/>
      <path id="Vereinigungsmenge_1" data-name="Vereinigungsmenge 1" d="M11.051,44.192,0,38.53l5.312-8.995,6.5,2.586L25.6,8.393a5.6,5.6,0,1,1,6.979,2.394L17.806,42.165s-3.668,2.211-5.851,2.211A1.986,1.986,0,0,1,11.051,44.192Z" transform="translate(123.389 23.955)" fill="#764c3f"/>
      <path id="Pfad_140" data-name="Pfad 140" d="M461.938,535.682h6.6l3.14-20.121h-9.741Z" transform="translate(-357.36 -329.17)" fill="#764c3f"/>
      <path id="Pfad_141" data-name="Pfad 141" d="M617.066,724.919h21.281v-.27a8.293,8.293,0,0,0-8.283-8.3h-13Z" transform="translate(-514.171 -511.994)" fill="#2f2e41"/>
      <path id="Pfad_142" data-name="Pfad 142" d="M507.938,535.682h6.6l3.14-20.121h-9.741Z" transform="translate(-428.124 -329.17)" fill="#764c3f"/>
      <path id="Pfad_143" data-name="Pfad 143" d="M663.066,724.919h21.281v-.27a8.293,8.293,0,0,0-8.283-8.3h-13Z" transform="translate(-584.935 -511.994)" fill="#2f2e41"/>
      <path id="Pfad_144" data-name="Pfad 144" d="M658.355,642.151a2.42,2.42,0,0,0,2.409-2.2l5.751-77.536-.272-.022-39.579-3.261-.011.282-3.146,80.321a2.425,2.425,0,0,0,2.421,2.519h7.761a2.411,2.411,0,0,0,2.394-2.059l10.538-64.886a.269.269,0,0,1,.535.039l.478,64.065a2.428,2.428,0,0,0,2.295,2.408l8.3.324C658.269,642.149,658.312,642.151,658.355,642.151Z" transform="translate(-545.808 -439.616)" fill="#292929"/>
      <ellipse id="Ellipse_20" data-name="Ellipse 20" cx="13.222" cy="12.808" rx="13.222" ry="12.808" transform="translate(92.57 2.378)" fill="#764c3f"/>
      <path id="Pfad_145" data-name="Pfad 145" d="M642.263,488.459a67.132,67.132,0,0,0,17.1-2.264,2.357,2.357,0,0,0,1.742-2.444c-1.78-25.914-2.2-46.024,1.545-59.938a22.713,22.713,0,0,0-1.987-17.136,23.411,23.411,0,0,0-20.64-11.85h0q-.6.011-1.221.042c-12.8.638-22.77,11.853-22.23,25l2.574,62.665a2.32,2.32,0,0,0,1.516,2.109,63.272,63.272,0,0,0,21.6,3.816Z" transform="translate(-539.03 -360.989)" fill="#004c45"/>
      <path id="Pfad_146" data-name="Pfad 146" d="M620.809,435.925l9.9-11.756a2.936,2.936,0,0,0,.651-2.421,3.006,3.006,0,0,0-1.467-2.059l-13.416-7.744a8.8,8.8,0,0,0-12.116,1.224,8.167,8.167,0,0,0,1.263,11.737l10.485,11.146a3.168,3.168,0,0,0,4.695-.125Z" transform="translate(-499.363 -368.29)" fill="#004c45"/>
      <path id="Pfad_147" data-name="Pfad 147" d="M685.59,430.9a3.034,3.034,0,0,0,1.7-1.881l4.458-14.448a8.233,8.233,0,0,0-4.116-11.106,8.736,8.736,0,0,0-11.465,3.987l-8.622,12.613a2.926,2.926,0,0,0-.4,2.472,3.032,3.032,0,0,0,1.671,1.908l14.187,6.433a3.189,3.189,0,0,0,2.583.021Z" transform="translate(-595.3 -364.744)" fill="#004c45"/>
      <path id="Pfad_148" data-name="Pfad 148" d="M624.142,355.638l9.8-2.173c1.011-.224,2.226-.652,2.366-1.647.188-1.338-1.8-2.27-1.615-3.608.177-1.3,1.988-1.463,3.279-1.846a4.718,4.718,0,0,0,3.054-5.914c1.4,1.907,4.587,2.07,6.4.525a5.361,5.361,0,0,0,1.071-6.434,7.7,7.7,0,0,0-5.773-3.776,12.514,12.514,0,0,0-7.011,1.266c-.144-1.478-2.048-2.077-3.58-2.09a15.265,15.265,0,0,0-14.343,10.141c-1.88,5.868-.622,12.3,4.637,15.733Z" transform="translate(-524.884 -329.942)" fill="#292929"/>
      <path id="Pfad_149" data-name="Pfad 149" d="M465.052,731.543H588.137c.178,0,0-.138,0-.426s-.592,0-.771,0L465.052,730.5c-.178,0-.323.233-.323.521S464.874,731.543,465.052,731.543Z" transform="translate(-464.724 -518.618)" fill="#292929"/>
    </g>
  </g>
</svg>
