<svg xmlns="http://www.w3.org/2000/svg" width="351.249" height="227.837" viewBox="0 0 351.249 227.837">
  <g id="undraw_Options_re_9vxh" transform="translate(-18.258 5.011)">
    <path id="Pfad_1" data-name="Pfad 1" d="M830.678,602.8c33.852-59.879-31.077-90.546-39.434-27.315-.423-8.16-.872-16.451-3.582-24.16-4.116-15.991-26.485-27.578-37.169-11.391-5.648,10.03,1.842,24.1-4.653,33.6-4.1-23.92-38.828-18.309-35.171,5.692,2.745,11.531,14.928,18.241,24.652,23.457Z" transform="translate(-470.875 -379.975)" fill="#f2f2f2"/>
    <path id="Pfad_2" data-name="Pfad 2" d="M720.635,596.808c17.184,5.576,38.658,14.968,40.4,35.5.05.814,1.324.82,1.273,0-.445-7.249-3.978-13.882-8.87-19.129-5.363-5.752-12.313-9.68-19.489-12.728C732.547,600.123,717.944,593.214,720.635,596.808Z" transform="translate(-475.866 -412.041)" fill="#fff"/>
    <path id="Pfad_3" data-name="Pfad 3" d="M808.478,536.581a115.623,115.623,0,0,1,16.243,65.937c-.047.819,1.226.816,1.273,0a117.031,117.031,0,0,0-9.447-53.009c-.812-1.494-7.359-17.229-8.069-12.928Z" transform="translate(-520.295 -381.84)" fill="#fff"/>
    <path id="Pfad_4" data-name="Pfad 4" d="M918.5,551.851a185.987,185.987,0,0,0-15.355,59.512c-.071.816,1.2.811,1.273,0a185.006,185.006,0,0,1,10.19-46.42c-.015-1.668,7.324-15.2,3.892-13.092Z" transform="translate(-567.993 -389.796)" fill="#fff"/>
    <path id="Pfad_5" data-name="Pfad 5" d="M601.831,651.95c9.69-17.141-8.9-25.92-11.289-7.819a24.564,24.564,0,0,0-1.025-6.916c-1.178-4.578-7.582-7.895-10.64-3.261-1.617,2.871.527,6.9-1.332,9.62-1.173-6.847-11.115-5.241-10.068,1.629.786,3.3,4.273,5.222,7.057,6.715Z" transform="translate(-398.82 -430.154)" fill="#f2f2f2"/>
    <path id="Pfad_6" data-name="Pfad 6" d="M570.329,650.234c4.919,1.6,11.066,4.285,11.565,10.161.014.233.379.235.365,0a8.961,8.961,0,0,0-2.539-5.476,16.06,16.06,0,0,0-5.579-3.644C573.739,651.184,569.559,649.206,570.329,650.234Z" transform="translate(-400.249 -439.333)" fill="#fff"/>
    <path id="Pfad_7" data-name="Pfad 7" d="M595.475,632.993a33.1,33.1,0,0,1,4.65,18.875c-.013.234.351.234.365,0a33.5,33.5,0,0,0-2.7-15.174c-.232-.428-2.107-4.932-2.31-3.7Z" transform="translate(-412.967 -430.687)" fill="#fff"/>
    <path id="Pfad_8" data-name="Pfad 8" d="M626.969,637.365a53.24,53.24,0,0,0-4.4,17.036c-.02.234.344.232.365,0a52.96,52.96,0,0,1,2.917-13.288c0-.477,2.1-4.352,1.114-3.748Z" transform="translate(-426.621 -432.965)" fill="#fff"/>
    <path id="Pfad_9" data-name="Pfad 9" d="M368.5,243.422H228.1a.5.5,0,1,1,0-.992H368.5a.5.5,0,0,1,0,.992Z" transform="translate(-186.982 -239.007)" fill="#292929"/>
    <circle id="Ellipse_3" data-name="Ellipse 3" cx="8.434" cy="8.434" r="8.434" transform="translate(144.207 -5.011)" fill="#ff5100"/>
    <path id="Pfad_10" data-name="Pfad 10" d="M368.5,307.422H228.1a.5.5,0,1,1,0-.992H368.5a.5.5,0,0,1,0,.992Z" transform="translate(-186.982 -271.256)" fill="#292929"/>
    <circle id="Ellipse_4" data-name="Ellipse 4" cx="8.434" cy="8.434" r="8.434" transform="translate(65.82 26.74)" fill="#ff5100"/>
    <path id="Pfad_11" data-name="Pfad 11" d="M368.5,371.422H228.1a.5.5,0,1,1,0-.992H368.5a.5.5,0,0,1,0,.992Z" transform="translate(-186.982 -303.504)" fill="#292929"/>
    <circle id="Ellipse_5" data-name="Ellipse 5" cx="8.434" cy="8.434" r="8.434" transform="translate(99.06 58.491)" fill="#ff5100"/>
    <path id="Pfad_12" data-name="Pfad 12" d="M630.978,380.326a5.592,5.592,0,0,1,.464.747l26.149,2.94,3.8-5.138,8.5,4.726-7.486,12.481-32.036-8.408a5.569,5.569,0,1,1,.6-7.348Z" transform="translate(-425.802 -302.353)" fill="#ffd7b8"/>
    <path id="Pfad_13" data-name="Pfad 13" d="M703.741,374.837a2.394,2.394,0,0,1-.582-.363l-10.51-8.853a2.387,2.387,0,0,1-.154-3.511l9.537-9.576a2.375,2.375,0,0,1,3.094-.246l7.212,5.237a2.389,2.389,0,0,1,.756,2.952l-6.239,13.192a2.39,2.39,0,0,1-3.114,1.169Z" transform="translate(-461.503 -289.119)" fill="#ff5100"/>
    <path id="Pfad_14" data-name="Pfad 14" d="M554.793,400.568l-6.277,1.708-9.574-23.4,9.263-2.52Z" transform="translate(-271.564 -189.641)" fill="#ffd7b8"/>
    <path id="Pfad_15" data-name="Pfad 15" d="M7.386,0H20.443V7.9H0V7.386A7.386,7.386,0,0,1,7.386,0Z" transform="translate(264.359 214.133) rotate(-15.221)" fill="#004c45"/>
    <path id="Pfad_16" data-name="Pfad 16" d="M452.985,409.328h-6.5l-3.095-25.09h9.6Z" transform="translate(-223.415 -193.611)" fill="#ffd7b8"/>
    <path id="Pfad_17" data-name="Pfad 17" d="M431.723,431.064h13.058v7.9H424.337v-.513a7.386,7.386,0,0,1,7.386-7.385Z" transform="translate(-213.817 -217.206)" fill="#004c45"/>
    <circle id="Ellipse_6" data-name="Ellipse 6" cx="13.032" cy="13.032" r="13.032" transform="translate(220.941 37.026) rotate(-45)" fill="#ffd7b8"/>
    <path id="Pfad_18" data-name="Pfad 18" d="M676.816,522.332h-8.889a2.4,2.4,0,0,1-2.385-2.24c-2.649-42.108-1.1-72.313,4.876-95.056a2.49,2.49,0,0,1,.1-.293l.476-1.19a2.376,2.376,0,0,1,2.217-1.5h18.28a2.384,2.384,0,0,1,1.813.834l2.483,2.9c.048.056.094.114.137.175,11.2,15.613,21.229,46.137,32.85,87.164a2.38,2.38,0,0,1-1.57,2.927l-9.553,3.057a2.4,2.4,0,0,1-2.879-1.237l-24.79-51.418a1.857,1.857,0,0,0-3.513.555l-7.284,53.263A2.4,2.4,0,0,1,676.816,522.332Z" transform="translate(-447.644 -324.504)" fill="#004c45"/>
    <path id="Pfad_19" data-name="Pfad 19" d="M700.167,380.983h-.075l-22.2-.7a2.38,2.38,0,0,1-2.3-2.1c-2.815-22.784,4.9-28.888,8.354-30.454a1.836,1.836,0,0,0,1.068-1.455l.3-2.388a2.379,2.379,0,0,1,.472-1.16,27.286,27.286,0,0,1,16.715-9.964,2.384,2.384,0,0,1,2.786,2.043l.447,3.429a1.889,1.889,0,0,0,.378.9c11.28,14.746-1.286,36.519-3.92,40.733h0A2.392,2.392,0,0,1,700.167,380.983Z" transform="translate(-453.031 -279.494)" fill="#ff5100"/>
    <path id="Pfad_20" data-name="Pfad 20" d="M712.375,435.843a5.7,5.7,0,0,0,.746-8.708l4.124-49.807-12.28,1.689-.234,48.392a5.731,5.731,0,0,0,7.643,8.434Z" transform="translate(-467.31 -301.969)" fill="#ffd7b8"/>
    <path id="Pfad_21" data-name="Pfad 21" d="M717.184,370.192a2.394,2.394,0,0,1-.679-.1l-13.183-3.877a2.387,2.387,0,0,1-1.553-3.152l4.879-12.6a2.375,2.375,0,0,1,2.734-1.47l8.709,1.893a2.389,2.389,0,0,1,1.88,2.4l-.405,14.587a2.39,2.39,0,0,1-2.381,2.323Z" transform="translate(-466.445 -287.661)" fill="#ff5100"/>
    <path id="Pfad_22" data-name="Pfad 22" d="M762.132,673.422H573.112a.5.5,0,0,1,0-.992h189.02a.5.5,0,0,1,0,.992Z" transform="translate(-401.448 -450.666)" fill="#292929"/>
    <path id="Pfad_23" data-name="Pfad 23" d="M736.793,268.287a54.045,54.045,0,0,1-2.136-9,6.1,6.1,0,0,1,1.609-4.922c2.425-2.3,6.545-1.2,9.081.971,3.665,3.143,5.493,7.972,6.184,12.75s.387,9.637.553,14.462.856,9.786,3.316,13.941,7.025,7.343,11.84,6.989a8.333,8.333,0,0,0,5.216-2.21,6.048,6.048,0,0,0,1.817-5.252c2.461,4.407,1.213,10.379-2.457,13.843a14.666,14.666,0,0,1-14.143,2.964,19.548,19.548,0,0,1-11.17-9.643,29.6,29.6,0,0,1-3.116-14.647c.1-3.875.755-7.781.1-11.6s-3.046-7.7-6.816-8.6Z" transform="translate(-483.086 -239.365)" fill="#292929"/>
    <path id="Pfad_24" data-name="Pfad 24" d="M694.359,279.7a4.823,4.823,0,0,1-5.313,3.108,6.231,6.231,0,0,1-4.7-4.323,8.9,8.9,0,0,1,.7-6.524,10.16,10.16,0,0,1,5.813-5.178A8.342,8.342,0,0,1,698.436,268a2.79,2.79,0,0,1,1.949-2.039,5.331,5.331,0,0,1,2.925.043,12.054,12.054,0,0,1,6.709,4.88,19.614,19.614,0,0,1,3.04,7.838c.749,4.2.472,8.792-1.887,12.348s-7.187,5.655-11.1,3.96a5.174,5.174,0,0,1,1-3.587,10.942,10.942,0,0,0,1.72-3.381,2.73,2.73,0,0,0-1.441-3.177c-1.028-.348-2.124.216-3.207.284a3.515,3.515,0,0,1-3.371-5.064Z" transform="translate(-457.582 -245.76)" fill="#292929"/>
    <path id="ic_insert_invitation_24px" d="M12.167,7.483H8.893v2.947h3.274ZM11.513,1V2.179H6.274V1H4.964V2.179H4.31a1.243,1.243,0,0,0-1.3,1.179L3,11.608a1.249,1.249,0,0,0,1.31,1.179h9.167a1.253,1.253,0,0,0,1.31-1.179V3.357a1.253,1.253,0,0,0-1.31-1.179h-.655V1Zm1.964,10.608H4.31V5.125h9.167Z" transform="translate(15.967 28.094)" fill="#004c45"/>
    <path id="ic_location_on_24px" d="M10.822,2A5.558,5.558,0,0,0,5,7.26c0,3.945,5.822,9.768,5.822,9.768S16.644,11.2,16.644,7.26A5.558,5.558,0,0,0,10.822,2Zm0,7.138A1.987,1.987,0,0,1,8.743,7.26a1.987,1.987,0,0,1,2.079-1.878A1.987,1.987,0,0,1,12.9,7.26,1.987,1.987,0,0,1,10.822,9.138Z" transform="translate(13.258 -7.011)" fill="#004c45"/>
    <path id="ic_poll_24px" d="M13.667,3H4.333A1.337,1.337,0,0,0,3,4.333v9.333A1.337,1.337,0,0,0,4.333,15h9.333A1.337,1.337,0,0,0,15,13.667V4.333A1.337,1.337,0,0,0,13.667,3ZM7,12.333H5.667V7.667H7Zm2.667,0H8.333V5.667H9.667Zm2.667,0H11V9.667h1.333Z" transform="translate(15.753 56.861)" fill="#004c45"/>
  </g>
</svg>
